<?xml version='1.0' encoding='utf-8'?>
<svg xmlns="http://www.w3.org/2000/svg" enable-background="new 0 0 841.89 595.28" version="1.1" viewBox="0 0 841.89 595.28">
	<polygon points="142 351 702 351 670.74 562 173 562" fill="#ED2024" stroke="#010101" stroke-miterlimit="10" stroke-width="4"/>
	<polygon points="145.94 351.92 154.93 360.72 691.81 359.46 700.61 351.78" fill="#F26A6C"/>
	<polygon points="184.04 549.68 174.99 559.74 668.83 559.63 700.61 351.78 691.81 359.54 662.17 550.39" fill="#C42026"/>
	<polygon points="164.52 371 190.25 541 205 541 181.1 384.63 580.31 384.81 579.5 371" fill="#FDB515"/>
	<polygon points="164.52 370.59 190.25 541 205 541 181.1 384.83" fill="#F6EB16"/>
	<polygon points="209.13 435 200.78 484 217 484 220.47 459.46 227.96 484 243 484 250.73 459.46 254.85 484 271 484 263.17 435 243 435 235.89 457.43 228.23 435" fill="#fff"/>
	<path d="m299 458h15.188s0.107-18.282-21.07-18.192c-18.676 0.079-21.549 14.146-21.549 21.978 0 7.618 1.863 21.65 22.104 22.02 23.027 0.42 20.545-16.906 20.545-16.906l-14.938-0.179s-0.162 5.416-6.348 5.416c-5.664 0-5.959-7.834-5.915-10.84 0.04-2.814 0.708-9.539 5.915-9.539 6.74 0 6.06 6.24 6.06 6.24z" fill="#fff"/>
	<path d="m320 435v50h31s25.022-1.06 25.022-28.477c0-21.548-24.955-21.523-24.955-21.523h-31.06z" fill="#fff"/>
	<path d="m337 445.68v26s20.777 3.986 20.777-14.536c0-14.46-20.78-11.46-20.78-11.46z" fill="#ED2024"/>
	<path d="m401.81 439.4c-19.768-4e-3 -23.014 13.804-23.014 21.892 0 8.114-0.081 22.891 23.014 22.891 23.572 0 23.603-14.677 23.568-22.891-0.03-8.04-4.22-21.89-23.57-21.89z" fill="#fff"/>
	<path d="m402.09 451.04c-8.044-0.396-8.141 7.335-8.041 10.745 0.094 3.186-3e-3 9.891 8.041 9.891 7.767 0 7.672-6.748 7.764-9.891 0.1-3.36 0.03-10.35-7.76-10.74z" fill="#ED2024"/>
	<path d="m430 443v40.68l14-0.055v-23.94s0.525-4.48 7.006-4.48c6.601 0 6.994 4.772 6.994 4.772v25.03h15.5s0.742-13.478 0.742-24.413c0-4.363-0.772-14.687-9.931-18.202-12.892-4.948-20.464 4.664-20.464 4.664l0.109-4.049h-13.96z" fill="#fff"/>
	<path d="m481 456h14s-1.133-4.824 4.689-4.824c4.159 0 4.578 3.62 3.327 4.209-5.586 2.63-25.229-1.357-25.229 15.845 0 4.495 2.985 13.132 15.803 13.001 5.171-0.053 11.055-4.048 11.055-4.048l-0.291 3.517 14.65 0.05v-32.122s-0.459-11.047-19.006-11.047c-23.41 0-18.99 15.41-18.99 15.41z" fill="#fff"/>
	<path d="m503.85 464.35s-9.839 0.519-10.321 3.819c-0.867 5.932 7.219 5.453 9.407 1.452 1.12-2.06 0.91-5.27 0.91-5.27z" fill="#ED2024"/>
	<rect x="525" y="435" width="16" height="50" fill="#fff"/>
	<path d="m591 435h-14.965l0.108 10.09s-8.922-5.794-16.562-3.205c-11.961 4.054-13.032 14.481-13.032 21.397 0 6.407 1.95 21.106 16.888 21.409 9.893 0.201 11.646-4.032 11.646-4.032l0.025 4.341h15.88v-50z" fill="#fff"/>
	<polygon points="595 435 595 450 604 450 608.38 435" fill="#fff"/>
	<path d="m627.76 455.2l14.149-0.041s1.015-14.057-11.439-14.141c-15.599-0.105-24.428-1.68-25.896 12.741-1.569 15.421 22.966 10.826 22.667 17.918-0.084 2.001-0.758 5.105-6.521 4.228-2.472-0.377-2.35-5.904-2.35-5.904h-15.37s-2.844 14.206 15.875 15.558c24.625 1.778 24.625-10.274 24.625-14.463 0-15.71-24.026-10.593-24.026-18.008 0-1.178 2.963-2.271 4.159-2.271 4.67-0.01 4.13 4.37 4.13 4.37z" fill="#fff"/>
	<polygon points="643.5 427 643.48 428.06 648.12 428.14 648 441 650 441 650.17 428.07 654 427.93 654 427" fill="#fff"/>
	<polygon points="655 427 655 441 657 441 657 432.68 660.15 440 662.88 440 666.53 433.29 666.52 441 668 441 668 427 666 427 661.5 435.61 658.05 427" fill="#fff"/>
	<path d="m569.02 453.76c-7.454 0-7.654 6.055-7.415 8.95 0.259 3.143-0.056 10.202 7.415 10.202 7.118 0 7.118-6.726 7.118-9.741 0-7.2-2.4-9.41-7.12-9.41z" fill="#ED2024"/>
	<polyline points="184.04 549.63 155.93 361.72 386.35 361.18 386.86 375.5 177.49 505.86" fill="#8A1A1B" opacity=".6"/>
	<path d="m196 421h68s4.524-271.72 67.031-334.23c12.204-12.204 27.051 43.017 36.909 91.237 16.23 79.36 18.55 220.99 18.55 220.99h72.529s0.931-131.65 18.994-219.78c15.533-75.781 25.969-96.736 34.711-92.642 60.6 28.382 69.18 334.42 69.18 334.42h67.1s-10.193-358.64-136.07-380.02c-54.48-9.263-90.43 114.64-90.43 114.64s-38.08-120.17-87.73-114.54c-125.78 14.243-138.77 379.92-138.77 379.92z" fill="#FBB416"/>
	<linearGradient id="d" x1="207.37" x2="313" y1="234.08" y2="234.08" gradientUnits="userSpaceOnUse">
		<stop stop-color="#F6EB16" stop-opacity=".8" offset=".5376"/>
		<stop stop-color="#F8EE5E" stop-opacity=".6499" offset=".5921"/>
		<stop stop-color="#FBF6B6" stop-opacity=".3281" offset=".7089"/>
		<stop stop-color="#FDFCE8" stop-opacity=".1047" offset=".79"/>
		<stop stop-color="#fff" stop-opacity="0" offset=".828"/>
	</linearGradient>
	<path d="m207.37 408.48l23.73-23.84s6.5-96.39 12.375-128c28.24-152.01 69.52-182.78 69.52-182.78v-14.181s-57.602 27.143-89.374 191.58c-10.58 54.72-16.26 157.22-16.26 157.22z" fill="url(#d)"/>
	<linearGradient id="c" x1="331" x2="423.83" y1="225.37" y2="225.37" gradientUnits="userSpaceOnUse">
		<stop stop-color="#fff" stop-opacity="0" offset=".0806"/>
		<stop stop-color="#F6EB16" stop-opacity=".7" offset=".328"/>
	</linearGradient>
	<path d="m396.94 387.55l26.893-24.69s-13.899-135.65-23.875-179.9c-29.94-132.79-68.96-119.38-68.96-119.38v9.1s29.955-5.727 48.08 109.7c9.62 61.25 17.86 205.17 17.86 205.17z" fill="url(#c)"/>
	<linearGradient id="b" x1="422.3" x2="522" y1="208.5" y2="208.5" gradientUnits="userSpaceOnUse">
		<stop stop-color="#F6EB16" stop-opacity=".7" offset=".5376"/>
		<stop stop-color="#F8EE5E" stop-opacity=".5687" offset=".5921"/>
		<stop stop-color="#FBF6B6" stop-opacity=".2871" offset=".7089"/>
		<stop stop-color="#FDFCE8" stop-opacity=".0916" offset=".79"/>
		<stop stop-color="#fff" stop-opacity="0" offset=".828"/>
	</linearGradient>
	<path d="m422.3 195.94l1.526 166.92s9.154-119.5 16.617-156.44c34.57-171.13 81.55-137.24 81.55-137.24v-12.501s-31.965-21.821-74.441 62.703c-9.06 18.03-25.26 76.56-25.26 76.56z" fill="url(#b)"/>
	<linearGradient id="a" x1="526" x2="613.92" y1="239.81" y2="239.81" gradientUnits="userSpaceOnUse">
		<stop stop-color="#fff" stop-opacity="0" offset=".0806"/>
		<stop stop-color="#F6EB16" stop-opacity=".8" offset=".328"/>
	</linearGradient>
	<path d="m591.34 408.46l22.578-20.992s-7.381-126.72-22.701-185.38c-31.76-121.63-65.22-130.94-65.22-130.94v13.53c63 72.83 65.34 323.78 65.34 323.78z" fill="url(#a)"/>
</svg>